#!OML:ASF F:\VICON\USERDATA\INSTALL\rory3\rory3.ASF
:FULLY-SPECIFIED
:DEGREES
343
root 1.94219 16.7179 13.7303 24.6657 4.64643 4.9469
lowerback -19.6765 -0.147179 -1.60983
upperback -5.87155 0.19381 -0.897454
thorax 4.65999 0.0989885 0.00471336
lowerneck -13.1363 -1.2041 -0.745047
upperneck 38.2488 -1.4292 -0.263929
head 15.7136 -0.71064 -0.21083
rclavicle -1.16289e-014 1.74931e-014
rhumerus -47.85 10.7943 -89.1223
rradius 21.9763
rwrist -11.996
rhand 14.036 12.0005
rfingers 7.12502
rthumb 38.9435 -13.5357
lclavicle -1.16289e-014 1.74931e-014
lhumerus -55.4057 -13.1692 87.7951
lradius 34.3891
lwrist 11.6293
lhand 24.4145 20.1964
lfingers 7.12502
lthumb 48.623 42.1132
rfemur -48.0425 5.56859 26.262
rtibia 40.0617
rfoot -49.0145 -31.5775
rtoes 39.2756
lfemur -20.5157 11.5741 -31.8924
ltibia 45.5368
lfoot 24.6959 23.2458
ltoes 11.1254
344
root 1.94313 16.718 13.7384 24.6294 4.67196 4.90661
lowerback -19.7385 -0.127361 -1.59483
upperback -5.85348 0.216783 -0.864698
thorax 4.7114 0.110106 0.0364298
lowerneck -13.1408 -1.23655 -0.82803
upperneck 38.2446 -1.50132 -0.139861
head 15.7153 -0.735409 -0.154748
rclavicle -2.83268e-015 1.27222e-014
rhumerus -47.7351 10.7661 -89.076
rradius 21.9427
rwrist -11.9699
rhand 12.7547 13.3043
rfingers 7.12502
rthumb 37.7342 -12.5667
lclavicle -2.83268e-015 1.27222e-014
lhumerus -55.3366 -13.2828 87.9408
lradius 34.1855
lwrist 11.8855
lhand 24.3689 19.8862
lfingers 7.12502
lthumb 48.5811 41.8232
rfemur -48.0272 5.37514 26.4025
rtibia 40.1454
rfoot -48.8392 -31.5719
rtoes 39.2318
lfemur -20.3377 11.5261 -31.8037
ltibia 45.3793
lfoot 24.6639 23.836
ltoes 11.5082
345
root 1.94027 16.7152 13.7393 24.685 4.63752 4.94034
lowerback -19.6182 -0.119898 -1.70209
upperback -6.0405 0.241063 -0.849497
thorax 4.44714 0.124889 0.119145
lowerneck -12.9717 -1.2694 -0.852876
upperneck 38.2721 -1.54722 -0.133738
head 15.6889 -0.757338 -0.154001
rclavicle 1.54804e-014 -1.27222e-014
rhumerus -47.9807 10.7877 -89.1211
rradius 22.1129
rwrist -11.7634
rhand 14.0647 11.3389
rfingers 7.12502
rthumb 38.9705 -14.1896
lclavicle 1.54804e-014 -1.27222e-014
lhumerus -55.6219 -13.4487 88.2084
lradius 34.0471
lwrist 12.2775
lhand 24.2084 19.7775
lfingers 7.12502
lthumb 48.4334 41.7855
rfemur -48.1439 5.48925 26.3231
rtibia 40.212
rfoot -48.8657 -31.6673
rtoes 39.5366
lfemur -20.2912 11.4269 -31.8487
ltibia 45.2728
lfoot 24.3175 24.2201
ltoes 13.1168
346
root 1.9238 16.7035 13.7423 24.838 4.25647 5.29785
lowerback -19.7083 -0.159278 -2.44076
upperback -6.13289 0.33393 -0.877289
thorax 4.38752 0.172485 0.53049
lowerneck -13.0724 -1.3007 -0.908572
upperneck 38.3025 -1.60412 -0.065847
head 15.7306 -0.779366 -0.125413
rclavicle 1.28216e-014 1.59028e-015
rhumerus -48.0075 10.6536 -88.9676
rradius 22.3243
rwrist -11.5736
rhand 14.3099 10.6263
rfingers 7.12502
rthumb 39.2017 -14.8357
lclavicle 1.28216e-014 1.59028e-015
lhumerus -55.7313 -13.4995 88.3965
lradius 33.9877
lwrist 12.404
lhand 24.2035 19.5391
lfingers 7.12502
lthumb 48.4288 41.5494
rfemur -48.4088 6.52552 25.462
rtibia 40.2973
rfoot -49.6933 -31.866
rtoes 40.4274
lfemur -20.3372 11.5226 -32.3158
ltibia 45.1824
lfoot 24.1497 24.0457
ltoes 13.8653
347
root 1.95007 16.7112 13.739 24.6552 4.89256 4.99083
lowerback -19.374 -0.168301 -1.62831
upperback -6.19938 0.153843 -0.809631
thorax 4.15128 0.0849773 0.0998247
lowerneck -13.2001 -1.2909 -0.937751
upperneck 38.3932 -1.60915 0.00799331
head 15.8092 -0.774686 -0.0907476
rclavicle -8.10048e-015 1.19271e-014
rhumerus -48.0717 10.7348 -89.0109
rradius 22.52
rwrist -11.6435
rhand 14.1164 10.3894
rfingers 7.12502
rthumb 39.0192 -15.1252
lclavicle -8.10048e-015 1.19271e-014
lhumerus -55.9339 -13.4688 88.5298
lradius 34.0267
lwrist 12.4805
lhand 24.1636 19.4067
lfingers 7.12502
lthumb 48.3922 41.4344
rfemur -48.2194 4.75116 26.5528
rtibia 40.3491
rfoot -48.0516 -31.9195
rtoes 39.1308
lfemur -19.9278 10.9923 -31.7768
ltibia 45.095
lfoot 23.2974 24.5441
ltoes 16.4806
348
root 1.93333 16.6974 13.7491 24.7171 4.60242 4.8438
lowerback -19.6073 -0.102408 -1.83483
upperback -6.20517 0.280334 -0.732872
thorax 4.26278 0.147562 0.327552
lowerneck -13.2705 -1.29441 -0.927094
upperneck 38.397 -1.65214 0.0958405
head 15.8295 -0.778568 -0.0626042
rclavicle 1.98785e-015 -1.27222e-014
rhumerus -47.9748 10.7502 -89.0396
rradius 22.4804
rwrist -11.5356
rhand 14.1305 10.4428
rfingers 7.12502
rthumb 39.0326 -15.0678
lclavicle 1.98785e-015 -1.27222e-014
lhumerus -55.9706 -13.4922 88.5739
lradius 34.0282
lwrist 12.5623
lhand 24.4822 19.6935
lfingers 7.12502
lthumb 48.6854 41.5801
rfemur -48.3128 5.93807 26.2672
rtibia 40.4079
rfoot -49.0527 -32.0282
rtoes 39.7475
lfemur -19.9137 11.152 -31.6812
ltibia 45.0148
lfoot 21.5359 25.8902
ltoes 21.6346
349
root 1.93199 16.6922 13.7632 24.8044 4.58094 4.8674
lowerback -19.8843 -0.0843766 -1.90218
upperback -6.17422 0.326438 -0.760265
thorax 4.43855 0.168788 0.347928
lowerneck -13.3515 -1.31982 -0.959163
upperneck 38.4024 -1.74604 0.263403
head 15.8554 -0.798736 -0.00111328
rclavicle -7.45443e-017 -1.66979e-014
rhumerus -47.9001 10.7233 -89.0918
rradius 22.4806
rwrist -11.4534
rhand 14.149 10.7523
rfingers 7.12502
rthumb 39.05 -14.7534
lclavicle -7.45443e-017 -1.66979e-014
lhumerus -55.8991 -13.5771 88.6069
lradius 33.7876
lwrist 12.5857
lhand 24.6543 19.4531
lfingers 7.12502
lthumb 48.8436 41.2625
rfemur -48.3415 6.01913 26.2155
rtibia 40.4449
rfoot -49.359 -31.6174
rtoes 39.9511
lfemur -19.8397 11.1538 -31.7071
ltibia 44.9182
lfoot 21.222 26.0377
ltoes 22.8504
350
root 1.93399 16.699 13.7705 24.8337 4.5537 4.88553
lowerback -19.8272 -0.0728754 -1.91641
upperback -6.31407 0.342427 -0.788404
thorax 4.25864 0.178976 0.329347
lowerneck -13.1726 -1.31682 -0.828667
upperneck 38.3999 -1.78763 0.272346
head 15.8092 -0.796397 -0.0261035
rclavicle 4.47266e-016 1.59028e-015
rhumerus -48.0754 10.7017 -89.1503
rradius 22.5233
rwrist -11.4758
rhand 14.2873 10.9419
rfingers 7.12502
rthumb 39.1804 -14.5262
lclavicle 4.47266e-016 1.59028e-015
lhumerus -56.1926 -13.6429 88.7062
lradius 33.6341
lwrist 12.6283
lhand 24.6646 19.07
lfingers 7.12502
lthumb 48.8531 40.8747
rfemur -48.3631 6.09894 26.133
rtibia 40.4782
rfoot -49.3989 -31.6361
rtoes 39.9476
lfemur -19.8036 11.0984 -31.7411
ltibia 44.8491
lfoot 20.8986 26.4605
ltoes 24.069
351
root 1.93474 16.7045 13.7748 24.8712 4.61654 4.78117
lowerback -19.9063 -0.0795492 -1.79878
upperback -6.32284 0.311591 -0.764998
thorax 4.29158 0.163395 0.280541
lowerneck -13.2802 -1.29956 -0.742638
upperneck 38.4389 -1.78962 0.273451
head 15.8542 -0.784236 -0.0424433
rclavicle 9.19379e-015 -4.77083e-015
rhumerus -47.9586 10.7841 -89.2346
rradius 22.4669
rwrist -11.452
rhand 14.3159 11.1212
rfingers 7.12502
rthumb 39.2073 -14.3391
lclavicle 9.19379e-015 -4.77083e-015
lhumerus -56.2602 -13.6017 88.6778
lradius 33.7292
lwrist 12.5738
lhand 25.0197 19.2785
lfingers 7.12502
lthumb 49.1792 40.9217
rfemur -48.4239 6.03649 26.2795
rtibia 40.5029
rfoot -49.1811 -31.8905
rtoes 39.6828
lfemur -19.8356 10.9955 -31.6123
ltibia 44.8062
lfoot 20.2686 27.2048
ltoes 26.0895
352
root 1.93752 16.7061 13.7824 24.9025 4.78051 4.67505
lowerback -20.0154 -0.111251 -1.65112
upperback -6.32905 0.24106 -0.710114
thorax 4.34327 0.128336 0.238998
lowerneck -13.301 -1.30486 -0.727469
upperneck 38.4472 -1.79092 0.241889
head 15.8628 -0.787035 -0.0592669
rclavicle -2.29596e-014 -1.59028e-014
rhumerus -47.9136 11.034 -89.4003
rradius 22.5527
rwrist -11.4729
rhand 14.0171 10.9323
rfingers 7.12502
rthumb 38.9257 -14.609
lclavicle -2.29596e-014 -1.59028e-014
lhumerus -56.2702 -13.509 88.6837
lradius 33.7024
lwrist 12.5288
lhand 25.3946 19.5644
lfingers 7.12502
lthumb 49.5232 41.0339
rfemur -48.3834 5.7833 26.514
rtibia 40.4645
rfoot -48.8525 -31.9409
rtoes 39.3487
lfemur -19.8623 10.8293 -31.4498
ltibia 44.8038
lfoot 21.3419 26.4243
ltoes 23.5877
353
root 1.92995 16.7014 13.7763 24.9069 4.66538 4.74674
lowerback -19.7045 -0.126484 -1.91703
upperback -6.50973 0.261137 -0.692777
thorax 3.9862 0.143178 0.412369
lowerneck -13.0995 -1.3611 -0.678733
upperneck 38.41 -1.85587 0.147012
head 15.793 -0.821257 -0.117995
rclavicle -2.04997e-015 1.23246e-014
rhumerus -48.0568 11.0713 -89.4261
rradius 22.5933
rwrist -11.2963
rhand 14.0193 10.7533
rfingers 7.12502
rthumb 38.9278 -14.7873
lclavicle -2.04997e-015 1.23246e-014
lhumerus -56.4198 -13.5084 88.8221
lradius 33.4153
lwrist 12.5298
lhand 25.5392 19.5479
lfingers 7.12502
lthumb 49.6558 40.9495
rfemur -48.3934 6.24492 26.2476
rtibia 40.422
rfoot -49.3977 -31.8174
rtoes 39.8321
lfemur -19.9419 10.8191 -31.5692
ltibia 44.8289
lfoot 21.6492 26.0646
ltoes 22.5011
354
root 1.93582 16.7063 13.805 25.0305 4.90512 4.38037
lowerback -20.0258 -0.0937336 -1.4838
upperback -6.62523 0.221912 -0.586027
thorax 4.03142 0.123088 0.2714
lowerneck -12.9171 -1.3866 -0.607043
upperneck 38.389 -1.88624 0.0666091
head 15.7359 -0.835431 -0.168697
rclavicle 1.11941e-014 -5.96354e-015
rhumerus -48.2106 11.1184 -89.4891
rradius 22.6228
rwrist -11.2709
rhand 14.0969 10.7414
rfingers 7.12502
rthumb 39.0009 -14.7783
lclavicle 1.11941e-014 -5.96354e-015
lhumerus -56.6803 -13.5687 88.9966
lradius 33.4032
lwrist 12.6129
lhand 25.7087 19.7859
lfingers 7.12502
lthumb 49.8111 41.1073
rfemur -48.3748 5.71838 26.9069
rtibia 40.3581
rfoot -49.2193 -31.4903
rtoes 39.7614
lfemur -19.9828 10.7439 -31.1374
ltibia 44.8357
lfoot 21.3112 26.173
ltoes 23.2265
355
root 1.93135 16.7067 13.8177 25.1446 4.81007 4.43076
lowerback -20.2877 -0.0942772 -1.65586
upperback -6.61194 0.260964 -0.592509
thorax 4.17906 0.142116 0.371892
lowerneck -12.8887 -1.41741 -0.59655
upperneck 38.2733 -1.94649 0.0940288
head 15.6708 -0.856287 -0.168015
rclavicle -2.42269e-015 -6.36111e-015
rhumerus -48.072 11.0745 -89.463
rradius 22.5694
rwrist -11.0788
rhand 13.8809 11.1315
rfingers 7.12502
rthumb 38.7972 -14.4464
lclavicle -2.42269e-015 -6.36111e-015
lhumerus -56.6695 -13.6191 89.1001
lradius 33.4639
lwrist 12.7034
lhand 25.8101 20.0509
lfingers 7.12502
lthumb 49.9038 41.324
rfemur -48.4532 5.84105 26.8038
rtibia 40.3214
rfoot -49.1954 -31.5753
rtoes 40.1328
lfemur -20.1144 10.7645 -31.2311
ltibia 44.8281
lfoot 21.3487 26.4046
ltoes 23.0524
356
root 1.9267 16.7098 13.8233 25.1885 4.71607 4.57989
lowerback -20.4496 -0.139355 -1.92484
upperback -6.46713 0.261997 -0.615709
thorax 4.41648 0.140517 0.50094
lowerneck -13.294 -1.42981 -0.543526
upperneck 38.2622 -1.98431 0.0991232
head 15.7628 -0.862781 -0.185735
rclavicle -7.20594e-016 1.94809e-014
rhumerus -47.7276 11.1706 -89.4893
rradius 22.5845
rwrist -11.0056
rhand 13.5402 11.2659
rfingers 7.12502
rthumb 38.4759 -14.4022
lclavicle -7.20594e-016 1.94809e-014
lhumerus -56.4292 -13.6226 89.1365
lradius 33.498
lwrist 12.7997
lhand 25.8813 20.2148
lfingers 7.12502
lthumb 49.969 41.4538
rfemur -48.4499 5.97934 26.5752
rtibia 40.2527
rfoot -48.9726 -31.7298
rtoes 40.1522
lfemur -20.2143 10.7314 -31.4149
ltibia 44.8319
lfoot 21.3777 26.9266
ltoes 23.4771
